<?xml version="1.0" encoding="utf-8"?>
<!-- Generator: Adobe Illustrator 16.0.0, SVG Export Plug-In . SVG Version: 6.00 Build 0)  -->
<!DOCTYPE svg PUBLIC "-//W3C//DTD SVG 1.1//EN" "http://www.w3.org/Graphics/SVG/1.1/DTD/svg11.dtd">
<svg version="1.1" id="Capa_1" xmlns="http://www.w3.org/2000/svg" xmlns:xlink="http://www.w3.org/1999/xlink" x="0px" y="0px"
	 width="296.405px" height="60.5px" viewBox="-74.405 -12.237 296.405 60.5" enable-background="new -74.405 -12.237 296.405 60.5"
	 xml:space="preserve">
<g>
	<path fill="#2FA9E0" d="M17.369,2.429l7.614,30.535h-6.755l-1.484-6.562H9.286l-1.445,6.562H1.047L8.661,2.429H17.369z
		 M10.497,20.939h4.998L12.996,9.732L10.497,20.939z"/>
	<path fill="#2FA9E0" d="M38.022,28.005h0.351c3.085,0,4.217-2.146,4.217-5.429h6.326v0.353c0,7.498-3.67,10.543-10.894,10.543
		c-7.927,0-11.441-4.412-11.441-14.955v-1.563C26.581,6.411,30.095,2,38.022,2c7.224,0,10.894,3.045,10.894,10.659v1.406H42.59
		c0-4.178-0.898-6.599-4.217-6.599h-0.351c-4.061,0-5.037,3.396-5.037,9.489v1.562C32.985,24.609,33.961,28.005,38.022,28.005z"/>
	<path fill="#2FA9E0" d="M51.958,18.517v-1.563C51.958,6.411,55.667,2,63.555,2c7.926,0,11.636,4.411,11.636,14.954v1.563
		c0,7.459-1.874,11.871-5.779,13.783l1.835,4.567h-4.92L65,33.394c-0.468,0.039-0.937,0.078-1.444,0.078
		C55.668,33.472,51.958,29.06,51.958,18.517z M67.109,26.523c1.21-1.522,1.64-4.258,1.64-8.006v-1.563
		c0-6.091-1.093-9.488-4.998-9.488H63.4c-3.905,0-5.037,3.396-5.037,9.488v1.563c0,5.818,1.015,9.176,4.529,9.488l-2.03-5.271h4.764
		L67.109,26.523z"/>
	<path fill="#2FA9E0" d="M78.702,23.32V2.508h6.326v20.617c0,3.239,1.016,4.881,4.608,4.881c3.592,0,4.646-1.642,4.646-4.881V2.508
		h6.326V23.32c0,6.64-2.694,10.152-10.972,10.152C81.357,33.472,78.702,29.958,78.702,23.32z"/>
	<path fill="#2FA9E0" d="M118.996,2.429l7.613,30.535h-6.754l-1.484-6.562h-7.458l-1.445,6.562h-6.794l7.614-30.535H118.996z
		 M112.124,20.939h4.998l-2.499-11.207L112.124,20.939z"/>
	<path fill="#2FA9E0" d="M139.143,32.964h-6.326V7.974h-7.026V2.507h20.422v5.467h-7.067v24.99H139.143z"/>
	<path fill="#2FA9E0" d="M155.383,32.964h-6.326V2.508h9.996c4.959,0,10.582,1.289,10.582,9.372v0.779
		c0,4.92-2.068,7.343-4.803,8.476l4.803,11.83h-6.832l-4.18-10.935h-3.24V32.964z M159.326,16.565c1.718,0,3.904-0.664,3.904-4.1
		v-0.391c0-3.437-2.188-4.1-3.904-4.1h-3.943v8.59H159.326z"/>
	<path fill="#2FA9E0" d="M172.325,18.517v-1.563C172.325,6.411,176.035,2,183.923,2c7.927,0,11.636,4.411,11.636,14.954v1.563
		c0,10.543-3.709,14.955-11.636,14.955C176.035,33.472,172.325,29.06,172.325,18.517z M184.118,28.005
		c3.903,0,4.998-3.396,4.998-9.488v-1.563c0-6.091-1.095-9.488-4.998-9.488h-0.353c-3.904,0-5.037,3.396-5.037,9.488v1.563
		c0,6.092,1.133,9.488,5.037,9.488H184.118z"/>
	<path fill="#2FA9E0" d="M221.561,32.964h-6.677l-9.84-18.898l0.194,6.129v12.771h-5.975V2.508h6.678l9.802,18.897l-0.195-6.13
		V2.508h6.013V32.964L221.561,32.964z"/>
</g>
<g>
	<polygon fill="#2FA9E0" stroke="#2FA8E0" stroke-miterlimit="10" points="-51.88,-11.506 -73.265,47.683 -54.202,47.683 
		-50.358,36.309 -34.019,36.228 -30.494,47.683 -10.952,47.683 -32.017,-11.506 	"/>
	<g>
		<g>
			<g>
				<path fill-rule="evenodd" clip-rule="evenodd" fill="#FFFFFF" stroke="#2FA8E0" stroke-miterlimit="10" d="M-42.236,41.272
					c-0.44,0-0.896-0.026-1.351-0.081c-1.341-0.156-2.63-0.541-3.831-1.142c-1.071-0.536-2.076-1.249-2.987-2.124
					c-0.682-0.653-1.313-1.401-1.873-2.222c-1.08-1.585-1.886-3.391-2.396-5.372c-0.306-1.186-0.499-2.411-0.574-3.644
					c-0.002-0.054-0.004-0.107-0.006-0.159c0-0.095-0.002-0.188-0.02-0.265l-0.006-0.031v-1.58l0.006-0.029
					c0.017-0.079,0.019-0.172,0.021-0.268c0-0.056,0.002-0.112,0.005-0.169c0.043-0.661,0.12-1.34,0.229-2.019
					c0.178-1.109,0.474-2.269,0.932-3.653c0.644-1.942,1.51-3.96,2.651-6.167c0.875-1.693,1.829-3.351,2.655-4.771
					c0.178-0.308,0.358-0.616,0.537-0.924c0.996-1.707,2.025-3.473,2.953-5.254c0.775-1.489,1.402-2.83,1.92-4.099
					c0.31-0.76,0.602-1.555,0.869-2.362l0.064-0.193h0.432l0.059,0.202l0.011,0.039c0.005,0.019,0.011,0.04,0.017,0.058
					c0.024,0.072,0.052,0.143,0.078,0.212c0.052,0.136,0.106,0.275,0.145,0.427c0.146,0.571,0.355,1.141,0.539,1.643
					c0.514,1.404,1.154,2.842,1.957,4.397c0.577,1.116,1.213,2.263,1.946,3.504c0.431,0.729,0.865,1.456,1.298,2.184
					c0.442,0.743,0.9,1.511,1.347,2.269c1.077,1.827,1.906,3.364,2.611,4.84c0.815,1.713,1.439,3.305,1.904,4.869
					c0.569,1.91,0.876,3.527,0.968,5.091c0.002,0.051,0.004,0.103,0.004,0.154c0.001,0.093,0.003,0.181,0.02,0.257l0.007,0.029
					v1.458l-0.003,0.021c-0.002,0.015-0.004,0.03-0.007,0.045c-0.002,0.007-0.004,0.02-0.006,0.026
					c-0.016,0.505-0.061,1.026-0.136,1.598c-0.296,2.251-0.98,4.354-2.035,6.247c-0.87,1.561-1.954,2.907-3.221,3.998
					c-1.322,1.137-2.798,1.965-4.389,2.452c-0.933,0.286-1.9,0.453-2.875,0.497C-41.923,41.27-42.08,41.272-42.236,41.272z"/>
				<path fill="#2FA9E0" d="M-42.217-4.975c0.011,0.037,0.02,0.074,0.032,0.11c0.07,0.206,0.163,0.405,0.217,0.616
					c0.145,0.569,0.344,1.12,0.546,1.67c0.556,1.521,1.228,2.991,1.971,4.43c0.616,1.192,1.272,2.363,1.953,3.519
					c0.878,1.486,1.768,2.965,2.645,4.452c0.929,1.573,1.813,3.169,2.599,4.818c0.746,1.564,1.396,3.165,1.89,4.826
					c0.489,1.644,0.855,3.31,0.956,5.027c0.009,0.154-0.004,0.309,0.032,0.46c0,0.468,0,0.937,0,1.401
					c-0.005,0.037-0.015,0.071-0.015,0.105c-0.018,0.524-0.066,1.046-0.135,1.57c-0.286,2.173-0.934,4.229-2.001,6.146
					c-0.829,1.489-1.866,2.811-3.159,3.925c-1.267,1.088-2.689,1.901-4.289,2.396c-0.915,0.282-1.85,0.441-2.804,0.483
					c-0.152,0.007-0.304,0.01-0.455,0.01c-0.44,0-0.88-0.027-1.319-0.079c-1.312-0.154-2.558-0.521-3.738-1.112
					c-1.079-0.541-2.047-1.241-2.918-2.074c-0.689-0.662-1.297-1.392-1.835-2.181c-1.103-1.617-1.867-3.388-2.356-5.281
					c-0.304-1.179-0.491-2.377-0.565-3.592c-0.009-0.157,0.002-0.316-0.031-0.468c0-0.508,0-1.012,0-1.52
					c0.035-0.156,0.022-0.318,0.032-0.478c0.043-0.669,0.12-1.332,0.226-1.994c0.199-1.229,0.53-2.428,0.921-3.608
					c0.701-2.119,1.61-4.148,2.633-6.128c0.833-1.615,1.735-3.19,2.647-4.76c1.191-2.049,2.402-4.086,3.497-6.189
					c0.701-1.348,1.358-2.715,1.932-4.122c0.318-0.783,0.609-1.577,0.875-2.38C-42.23-4.975-42.223-4.975-42.217-4.975
					 M-41.797-5.536h-0.42h-0.019h-0.406l-0.127,0.384c-0.264,0.803-0.554,1.591-0.862,2.345c-0.513,1.262-1.138,2.594-1.908,4.076
					c-0.925,1.775-1.953,3.538-2.947,5.243c-0.179,0.308-0.358,0.615-0.537,0.924c-0.829,1.423-1.785,3.085-2.662,4.784
					c-1.146,2.22-2.019,4.251-2.667,6.209c-0.462,1.398-0.762,2.571-0.943,3.693c-0.109,0.688-0.188,1.377-0.231,2.049
					c-0.004,0.063-0.005,0.127-0.006,0.181c-0.002,0.084-0.002,0.159-0.015,0.213l-0.013,0.06v0.061v1.52v0.061l0.014,0.062
					c0.011,0.049,0.012,0.125,0.014,0.206c0.001,0.054,0.001,0.112,0.005,0.174c0.075,1.249,0.271,2.491,0.582,3.696
					c0.519,2.012,1.339,3.849,2.436,5.459c0.572,0.838,1.214,1.602,1.911,2.269c0.931,0.892,1.959,1.621,3.055,2.17
					c1.231,0.617,2.551,1.01,3.924,1.171c0.467,0.055,0.933,0.081,1.384,0.081c0.16,0,0.321-0.002,0.479-0.01
					c0.998-0.044,1.99-0.216,2.944-0.51c1.628-0.499,3.138-1.345,4.489-2.506c1.292-1.112,2.398-2.484,3.284-4.074
					c1.071-1.926,1.767-4.062,2.068-6.348c0.075-0.57,0.119-1.097,0.137-1.604c0-0.002,0-0.005,0-0.007
					c0.003-0.015,0.007-0.032,0.009-0.049l0.007-0.045v-0.044v-1.401V24.89l-0.015-0.066c-0.011-0.044-0.011-0.117-0.013-0.193
					c0-0.051-0.001-0.107-0.005-0.169c-0.092-1.585-0.403-3.224-0.978-5.154c-0.469-1.577-1.098-3.182-1.921-4.908
					c-0.707-1.484-1.54-3.028-2.621-4.862c-0.448-0.758-0.905-1.527-1.349-2.271c-0.425-0.714-0.866-1.454-1.295-2.181
					c-0.731-1.237-1.365-2.379-1.939-3.491c-0.797-1.544-1.433-2.972-1.943-4.366c-0.182-0.496-0.387-1.058-0.53-1.616
					c-0.042-0.166-0.102-0.32-0.154-0.457c-0.027-0.071-0.053-0.137-0.075-0.202c-0.005-0.014-0.009-0.029-0.013-0.043
					c-0.004-0.015-0.008-0.029-0.012-0.043L-41.797-5.536L-41.797-5.536z"/>
			</g>
		</g>
	</g>
	<g>
		<g>
			<g>
				<path fill-rule="evenodd" clip-rule="evenodd" fill="#2FA9E0" d="M-31.602,29.091c-1.061,0-2.13-0.112-3.178-0.338
					c-2.223-0.475-4.458-1.354-6.836-2.688c-1.803-1.012-3.569-2.126-5.277-3.207c-1.271-0.803-2.584-1.631-3.895-2.405
					c-3.409-2.017-6.403-3.24-9.423-3.854c-1.301-0.264-2.659-0.398-4.034-0.398c-0.505,0-1.025,0.018-1.544,0.054
					c-2.153,0.147-4.245,0.68-6.187,1.235c-0.009,0.006-0.017,0.011-0.026,0.015c-0.124,0.066-0.333,0.177-0.605,0.177
					c-0.405,0-0.747-0.239-0.915-0.641c-0.11-0.264-0.269-0.928,0.652-1.396c0.017-0.008,0.033-0.017,0.048-0.024
					c1.608-0.881,3.532-1.892,5.605-2.718c2.409-0.959,4.569-1.585,6.604-1.916c1.563-0.253,3.105-0.381,4.587-0.381
					c1.116,0,2.235,0.072,3.324,0.215c3.571,0.468,7.078,1.633,11.375,3.776c0.818,0.408,1.641,0.835,2.437,1.248
					c0.97,0.503,1.973,1.025,2.967,1.511c2.483,1.212,5.152,2.439,8.068,2.917c0.836,0.137,1.683,0.208,2.514,0.208
					c0.503,0,1.009-0.024,1.504-0.076c3.373-0.34,6.532-1.772,10.241-4.643c0.812-0.628,1.626-1.298,2.421-1.994
					c0.236-0.207,0.541-0.29,0.626-0.311c0.063-0.014,0.123-0.021,0.183-0.021c0.194,0,0.384,0.071,0.532,0.202
					c0.195,0.173,0.294,0.429,0.265,0.688c-0.027,0.237-0.128,0.442-0.194,0.578l-0.019,0.039c-0.08,0.167-0.181,0.325-0.299,0.473
					c-0.134,0.166-0.279,0.311-0.406,0.438c-0.073,0.072-0.141,0.14-0.203,0.207c-0.198,0.215-0.397,0.438-0.59,0.653
					c-0.234,0.261-0.477,0.534-0.723,0.799l-0.206,0.219c-0.372,0.4-0.758,0.813-1.147,1.216c-0.435,0.445-0.903,0.923-1.395,1.403
					c-0.502,0.49-0.974,0.936-1.436,1.359l-0.04,0.037c-0.044,0.042-0.087,0.083-0.133,0.123c-3.004,2.722-5.737,4.562-8.601,5.786
					C-27.178,28.609-29.415,29.091-31.602,29.091z"/>
				<path fill="#FFFFFF" d="M-56.023,11.407c1.068,0,2.141,0.067,3.22,0.209c3.962,0.52,7.591,1.938,11.121,3.698
					c1.812,0.905,3.592,1.873,5.41,2.762c2.653,1.297,5.354,2.507,8.29,2.989c0.87,0.143,1.754,0.218,2.644,0.218
					c0.526,0,1.057-0.026,1.584-0.08c4.097-0.412,7.482-2.354,10.651-4.806c0.84-0.65,1.659-1.326,2.458-2.025
					c0.07-0.059,0.198-0.113,0.283-0.133c-0.013,0.115-0.087,0.256-0.139,0.36c-0.053,0.113-0.121,0.218-0.199,0.315
					c-0.174,0.215-0.386,0.401-0.574,0.604c-0.442,0.479-0.868,0.971-1.312,1.448c-0.444,0.477-0.886,0.954-1.341,1.423
					c-0.453,0.467-0.91,0.933-1.378,1.386c-0.465,0.455-0.937,0.906-1.418,1.345c-0.056,0.052-0.113,0.105-0.169,0.156
					c-2.521,2.283-5.233,4.297-8.378,5.643c-2.054,0.879-4.168,1.369-6.331,1.369c-0.994,0-1.997-0.103-3.011-0.321
					c-2.339-0.499-4.522-1.431-6.611-2.602c-3.124-1.754-6.077-3.784-9.157-5.604c-3.025-1.788-6.204-3.245-9.67-3.948
					c-1.386-0.282-2.781-0.415-4.194-0.415c-0.53,0-1.063,0.018-1.6,0.054c-2.198,0.151-4.294,0.676-6.388,1.278
					c-0.113,0.033-0.254,0.147-0.375,0.147c-0.067,0-0.13-0.036-0.175-0.147c-0.093-0.221,0.185-0.32,0.346-0.41
					c1.796-0.982,3.615-1.917,5.517-2.675c2.084-0.83,4.221-1.51,6.437-1.869C-59,11.539-57.516,11.407-56.023,11.407
					 M-56.025,9.806c-1.523,0-3.109,0.132-4.714,0.392c-2.094,0.338-4.309,0.98-6.772,1.961c-2.114,0.842-4.065,1.866-5.694,2.758
					c-0.006,0.004-0.017,0.009-0.026,0.014c-0.139,0.07-0.396,0.201-0.634,0.439c-0.533,0.531-0.684,1.29-0.395,1.98
					c0.292,0.698,0.926,1.13,1.653,1.13c0.429,0,0.753-0.15,0.932-0.244c1.875-0.535,3.891-1.043,5.94-1.184
					c0.501-0.035,1.002-0.053,1.49-0.053c1.322,0.001,2.625,0.13,3.875,0.383c2.929,0.595,5.844,1.788,9.173,3.757
					c1.302,0.77,2.61,1.598,3.875,2.396c1.717,1.083,3.493,2.205,5.313,3.227c2.449,1.374,4.759,2.281,7.061,2.773
					c1.103,0.235,2.229,0.355,3.345,0.355c2.295,0,4.638-0.505,6.962-1.5c2.947-1.261,5.75-3.146,8.822-5.928
					c0.048-0.042,0.093-0.084,0.139-0.125l0.04-0.037c0.468-0.429,0.943-0.88,1.455-1.377c0.498-0.487,0.971-0.97,1.407-1.421
					c0.396-0.406,0.784-0.823,1.16-1.228l0.203-0.217c0.254-0.272,0.5-0.546,0.737-0.811c0.199-0.223,0.389-0.436,0.581-0.644
					c0.052-0.055,0.113-0.117,0.18-0.183c0.142-0.142,0.303-0.302,0.464-0.501c0.158-0.197,0.292-0.409,0.4-0.633l0.015-0.03
					c0.085-0.174,0.229-0.466,0.268-0.842c0.059-0.518-0.138-1.03-0.528-1.375c-0.296-0.264-0.676-0.404-1.063-0.404
					c-0.121,0-0.243,0.014-0.364,0.042c-0.171,0.04-0.606,0.167-0.974,0.487c-0.782,0.685-1.584,1.345-2.383,1.963
					c-3.585,2.773-6.617,4.154-9.833,4.48c-0.47,0.047-0.948,0.071-1.423,0.071c-0.788,0-1.592-0.066-2.384-0.196
					c-2.809-0.463-5.416-1.662-7.846-2.849c-0.986-0.481-1.984-1-2.95-1.501c-0.798-0.415-1.625-0.843-2.448-1.254
					c-4.38-2.185-7.966-3.374-11.628-3.854C-53.718,9.881-54.872,9.806-56.025,9.806L-56.025,9.806z"/>
			</g>
			<path fill="#FFFFFF" d="M-31.602,28.349c-1.009,0-2.024-0.107-3.022-0.32c-2.149-0.459-4.316-1.313-6.628-2.609
				c-1.786-1.002-3.543-2.111-5.245-3.188c-1.274-0.806-2.594-1.639-3.914-2.418c-3.481-2.058-6.549-3.31-9.651-3.941
				c-1.351-0.274-2.757-0.414-4.182-0.414c-0.522,0-1.059,0.02-1.595,0.056c-0.971,0.067-1.93,0.215-2.883,0.399
				c-0.925,0.178-1.837,0.417-2.743,0.669c-0.218,0.061-0.436,0.122-0.647,0.201c-0.164,0.063-0.322,0.167-0.505,0.141
				c-0.185-0.026-0.3-0.187-0.209-0.353c0.101-0.183,0.289-0.268,0.463-0.363c0.296-0.163,0.595-0.323,0.895-0.48
				c0.17-0.089,0.342-0.178,0.514-0.267c0.154-0.079,0.308-0.158,0.462-0.238c0.735-0.375,1.479-0.735,2.233-1.072
				c0.436-0.195,0.875-0.381,1.319-0.558c2.358-0.938,4.468-1.551,6.448-1.872c1.523-0.247,3.027-0.372,4.469-0.372
				c1.084,0,2.17,0.07,3.228,0.209c3.485,0.457,6.921,1.6,11.14,3.705c0.814,0.405,1.635,0.832,2.429,1.243
				c0.974,0.506,1.98,1.028,2.981,1.517c2.423,1.187,5.258,2.489,8.273,2.984c0.877,0.145,1.763,0.218,2.635,0.218
				c0.526,0,1.058-0.026,1.579-0.081c3.519-0.354,6.795-1.834,10.622-4.794c0.82-0.636,1.646-1.316,2.454-2.021
				c0.042-0.037,0.091-0.057,0.162-0.085c0.037-0.017,0.082-0.035,0.137-0.06l0.099-0.047l-0.015,0.108
				c-0.051,0.36-0.232,0.554-0.393,0.727c-0.026,0.027-0.051,0.054-0.077,0.083c-1.6,1.805-3.74,4.146-6.083,6.27
				c-2.941,2.665-5.609,4.461-8.396,5.651C-27.377,27.886-29.515,28.349-31.602,28.349z M-64.245,15.341
				c1.433,0,2.848,0.14,4.206,0.416c3.116,0.634,6.194,1.889,9.688,3.955c1.322,0.784,2.642,1.614,3.918,2.42
				c1.698,1.076,3.456,2.184,5.238,3.183c2.302,1.294,4.458,2.142,6.595,2.6c0.989,0.21,1.998,0.318,2.998,0.318
				c2.07,0,4.193-0.458,6.308-1.364c2.774-1.188,5.431-2.977,8.361-5.633c2.339-2.119,4.475-4.459,6.076-6.26
				c0.025-0.028,0.051-0.056,0.079-0.085c0.137-0.147,0.278-0.298,0.339-0.554c-0.012,0.005-0.025,0.012-0.038,0.017
				c-0.061,0.024-0.101,0.042-0.128,0.065c-0.81,0.708-1.637,1.39-2.461,2.026c-3.844,2.974-7.139,4.463-10.68,4.819
				c-0.527,0.054-1.06,0.081-1.592,0.081l0,0c-0.879,0-1.771-0.074-2.655-0.219c-3.03-0.499-5.875-1.808-8.305-2.994
				c-1.003-0.492-2.01-1.014-2.984-1.519c-0.793-0.412-1.614-0.838-2.427-1.243c-4.207-2.099-7.631-3.238-11.102-3.693
				c-1.054-0.138-2.134-0.208-3.213-0.208c-1.436,0-2.933,0.124-4.45,0.37c-1.972,0.32-4.073,0.931-6.423,1.866
				c-2.033,0.81-3.927,1.806-5.511,2.671c-0.022,0.013-0.047,0.026-0.072,0.039c-0.181,0.091-0.304,0.166-0.249,0.298
				c0.042,0.099,0.087,0.111,0.121,0.111c0.058,0,0.131-0.039,0.202-0.077c0.051-0.027,0.105-0.055,0.156-0.07
				c1.997-0.574,4.154-1.125,6.401-1.279C-65.309,15.36-64.77,15.341-64.245,15.341z"/>
		</g>
	</g>
</g>
</svg>
