<?xml version="1.0" standalone="no"?>
<!DOCTYPE svg PUBLIC "-//W3C//DTD SVG 20010904//EN"
 "http://www.w3.org/TR/2001/REC-SVG-20010904/DTD/svg10.dtd">
<svg version="1.0" xmlns="http://www.w3.org/2000/svg"
 width="420.000000pt" height="420.000000pt" viewBox="0 0 420.000000 420.000000"
 preserveAspectRatio="xMidYMid meet">
<metadata>
Created by potrace 1.14, written by Peter Selinger 2001-2017
</metadata>
<g transform="translate(0.000000,420.000000) scale(0.100000,-0.100000)"
fill="#000000" stroke="none">
<path d="M1893 3664 c-16 -17 -33 -24 -58 -24 -39 0 -75 -15 -88 -37 -5 -7
-12 -11 -17 -8 -17 11 -77 -23 -108 -61 -18 -21 -35 -54 -38 -74 -4 -19 -18
-45 -31 -57 -26 -24 -53 -81 -53 -110 0 -10 -13 -33 -29 -50 -23 -27 -28 -40
-24 -70 2 -22 -4 -62 -15 -93 -10 -30 -16 -68 -14 -85 9 -62 8 -66 -28 -170
-11 -33 -23 -71 -25 -85 -3 -14 -7 -36 -10 -50 -3 -14 -8 -38 -10 -55 -3 -16
-7 -41 -10 -55 -3 -14 -8 -45 -11 -70 -4 -25 -8 -54 -9 -65 -2 -11 -4 -42 -4
-68 l-1 -48 -26 20 c-21 17 -30 18 -48 9 -19 -10 -38 -33 -42 -50 -1 -5 -2 -9
-4 -10 -17 -22 -29 -365 -15 -433 10 -49 31 -74 60 -71 20 3 25 -1 26 -18 5
-195 44 -333 133 -466 64 -95 250 -279 284 -280 6 0 12 -4 12 -9 0 -8 20 -16
43 -19 4 0 18 -7 31 -15 26 -17 87 -37 166 -52 55 -11 216 -13 276 -3 64 10
231 62 288 89 22 11 44 19 49 19 18 0 144 89 192 136 28 27 89 94 135 149 125
147 114 141 211 119 21 -5 35 2 68 31 23 21 41 43 41 50 0 7 3 15 8 17 7 3 63
104 62 113 0 3 7 22 16 43 9 20 17 44 19 52 2 8 4 15 5 15 4 0 14 57 24 130 4
27 -13 76 -33 96 -18 17 -66 15 -89 -4 -17 -13 -14 18 12 126 28 118 45 191
50 222 3 17 8 41 11 55 24 104 27 297 6 350 -8 19 -26 51 -40 70 -23 32 -26
43 -24 114 2 70 0 85 -23 124 -32 54 -152 177 -182 186 -12 4 -22 11 -22 16 0
5 -16 14 -35 21 -19 7 -35 17 -35 23 0 5 -3 7 -6 3 -4 -3 -12 -1 -19 6 -6 7
-24 21 -39 32 -16 11 -33 25 -40 30 -58 51 -188 120 -261 139 -33 8 -61 20
-63 26 -2 5 -9 10 -17 10 -7 0 -18 7 -25 15 -7 9 -15 13 -18 10 -3 -3 -11 0
-17 5 -7 6 -41 13 -76 16 -36 4 -86 17 -114 30 -53 25 -82 29 -127 18 -21 -5
-44 2 -89 25 -71 36 -86 37 -116 5z"/>
</g>
</svg>
